<?xml version="1.0" encoding="UTF-8" standalone="no"?>
<!DOCTYPE svg PUBLIC "-//W3C//DTD SVG 1.1//EN" "http://www.w3.org/Graphics/SVG/1.1/DTD/svg11.dtd">
<svg width="100%" height="100%" viewBox="0 0 355 356" version="1.1" xmlns="http://www.w3.org/2000/svg" xmlns:xlink="http://www.w3.org/1999/xlink" xml:space="preserve" style="fill-rule:evenodd;clip-rule:evenodd;stroke-linejoin:round;stroke-miterlimit:1.41421;">
    <g transform="matrix(5.55556,0,0,5.55556,-283.333,-2483.43)">
        <path d="M83,503.166C69.68,503.166 58.85,492.337 58.85,479.017C58.85,465.696 69.68,454.866 83,454.866C94.96,454.866 104.91,463.597 106.81,475.017L114.75,475.017C112.79,459.236 99.32,447.017 83,447.017C65.33,447.017 51,461.347 51,479.017C51,496.687 65.33,511.017 83,511.017C98.97,511.017 112.21,499.316 114.61,484.017L106.63,484.017C104.32,494.946 94.61,503.166 83,503.166" style="fill:rgb(38,62,155);fill-rule:nonzero;"/>
    </g>
    <g transform="matrix(5.55556,0,0,5.55556,-283.333,-2483.43)">
        <path d="M83,487.466C78.34,487.466 74.55,483.676 74.55,479.016C74.55,474.356 78.34,470.566 83,470.566C86.21,470.566 89.01,472.365 90.44,475.016L98.81,475.016C97.02,467.945 90.62,462.716 83,462.716C74,462.716 66.7,470.016 66.7,479.016C66.7,488.016 74,495.316 83,495.316C90.26,495.316 96.41,490.566 98.52,484.016L89.8,484.016C88.27,486.106 85.79,487.466 83,487.466" style="fill:rgb(239,32,27);fill-rule:nonzero;"/>
    </g>
</svg>
